# xmcd CD database file
#
# Track frame offsets:
#	150
#	24237
#	40595
#	54500
#	72200
#	86820
#	101822
#	118525
#	143750
#	161445
#	172607
#	189140
#	209820
#	221400
#
# Disc length: 3252 seconds
#
# Revision: 0
# Processed by: cddbd v1.4PL0 Copyright (c) Steve Scherf et al.
# Submitted via: CDex 1.51
#
DISCID=b60cb20e
DTITLE=Gösta Linderholm and The Trad Brothers - Jazz Traditional
DYEAR=1998
DGENRE=Jazz
TTITLE0=Vet Du Hur Det Känns Att Missa New Orleans
TTITLE1=Waxholms Vita Måsar
TTITLE2=Lonesome
TTITLE3=My Baby Just Cares For Me
TTITLE4=Sacramental Blues
TTITLE5=Swanee River
TTITLE6=Precious Lord, Lead Me On
TTITLE7=Blues For Jimmy Noone
TTITLE8=Stockho-l-m
TTITLE9=Elephant Stomp
TTITLE10=Maria Elena
TTITLE11=Din Röda Mun Bär Skratt ...
TTITLE12=Isle Of Capri
TTITLE13=Doftande Morgon
EXTD=YEAR: 1998
EXTT0=
EXTT1=
EXTT2=
EXTT3=
EXTT4=
EXTT5=
EXTT6=
EXTT7=
EXTT8=
EXTT9=
EXTT10=
EXTT11=
EXTT12=
EXTT13=
PLAYORDER=
